<svg width="21" height="11" viewBox="0 0 21 11" fill="none" xmlns="http://www.w3.org/2000/svg">
<path d="M1.17335 6.00056C0.971181 5.80436 0.804741 5.63413 0.677381 5.5C0.804741 5.36587 0.971181 5.19564 1.17335 4.99944C1.6917 4.49641 2.44216 3.8254 3.3685 3.15507C5.23171 1.80678 7.75288 0.5 10.5 0.5C13.2471 0.5 15.7683 1.80678 17.6315 3.15507C18.5578 3.8254 19.3083 4.49641 19.8266 4.99944C20.0288 5.19564 20.1953 5.36587 20.3226 5.5C20.1953 5.63413 20.0288 5.80436 19.8266 6.00056C19.3083 6.50359 18.5578 7.1746 17.6315 7.84493C15.7683 9.19322 13.2471 10.5 10.5 10.5C7.75288 10.5 5.23171 9.19322 3.3685 7.84493C2.44216 7.1746 1.6917 6.50359 1.17335 6.00056Z" stroke="white"/>
<rect x="10.5" y="2.50098" width="4.24211" height="4.24211" transform="rotate(45 10.5 2.50098)" fill="white"/>
</svg>
