<svg width="11" height="26" viewBox="0 0 11 26" fill="none" xmlns="http://www.w3.org/2000/svg">
<path fill-rule="evenodd" clip-rule="evenodd" d="M2.42769 19.462C2.42769 17.4285 2.41727 15.395 2.43811 13.3615C2.43811 13.0168 2.35478 12.9134 2.0423 12.9249C1.46942 12.9479 0.896547 12.9249 0.313255 12.9364C0.0841048 12.9479 -0.0096386 12.8675 0.000777332 12.6032C0.0111933 11.3394 0.0111933 10.0642 0.000777332 8.80042C0.000777332 8.55916 0.0632729 8.47874 0.292423 8.47874C0.875716 8.49023 1.46942 8.45576 2.05272 8.49023C2.39644 8.5132 2.45894 8.37534 2.45894 8.03067C2.43811 7.06561 2.43811 6.10055 2.45894 5.1355C2.47977 3.95215 2.77141 2.84922 3.40679 1.89565C4.1984 0.666351 5.34415 0.114888 6.66697 0.0459552C8.02104 -0.0229776 9.38553 0.0114888 10.75 0C10.9375 0 11 0.0689328 11 0.275731C10.9896 1.56248 10.9896 2.83773 11 4.12448C11 4.35426 10.9375 4.42319 10.7292 4.42319C10.073 4.4117 9.41678 4.42319 8.77099 4.42319C7.89605 4.42319 7.37526 4.91721 7.32318 5.87078C7.28151 6.62904 7.31276 7.39879 7.29193 8.16854C7.28151 8.44427 7.43775 8.42129 7.59399 8.42129C8.5835 8.42129 9.58343 8.43278 10.5729 8.4098C10.8646 8.4098 10.9583 8.47874 10.9271 8.81191C10.8021 10.0872 10.6979 11.3624 10.5938 12.6492C10.5729 12.9364 10.448 12.9938 10.2188 12.9938C9.43761 12.9823 8.646 12.9823 7.86481 12.9938C7.30234 12.9938 7.35442 12.9019 7.35442 13.5338C7.35442 17.5204 7.34401 21.4956 7.36484 25.4822C7.36484 25.9073 7.2711 26.0107 6.89612 25.9992C5.55247 25.9762 4.1984 25.9762 2.85474 25.9992C2.47977 26.0107 2.41727 25.8613 2.41727 25.4937C2.42769 23.4716 2.42769 21.4611 2.42769 19.462Z" fill="white"/>
</svg>
