<svg width="24" height="24" viewBox="0 0 24 24" fill="none" xmlns="http://www.w3.org/2000/svg">
<path d="M12 2.16563C8.79375 2.16563 8.41875 2.175 7.15313 2.23125C5.98125 2.2875 5.34375 2.48438 4.92188 2.64375C4.35938 2.85938 3.96563 3.12187 3.54375 3.54375C3.12188 3.96562 2.85938 4.35938 2.64375 4.92188C2.475 5.34375 2.2875 5.98125 2.23125 7.15313C2.175 8.41875 2.16563 8.79375 2.16563 12C2.16563 15.2063 2.175 15.5812 2.23125 16.8469C2.2875 18.0187 2.48438 18.6562 2.64375 19.0781C2.85938 19.6406 3.12188 20.0344 3.54375 20.4562C3.96563 20.8781 4.35938 21.1406 4.92188 21.3563C5.34375 21.525 5.98125 21.7125 7.15313 21.7687C8.41875 21.825 8.79375 21.8344 12 21.8344C15.2063 21.8344 15.5812 21.825 16.8469 21.7687C18.0187 21.7125 18.6562 21.5156 19.0781 21.3563C19.6406 21.1406 20.0344 20.8781 20.4563 20.4562C20.8781 20.0344 21.1406 19.6406 21.3562 19.0781C21.525 18.6562 21.7125 18.0187 21.7688 16.8469C21.825 15.5812 21.8344 15.2063 21.8344 12C21.8344 8.79375 21.825 8.41875 21.7688 7.15313C21.7125 5.98125 21.5156 5.34375 21.3562 4.92188C21.1406 4.35938 20.8781 3.96562 20.4563 3.54375C20.0344 3.12187 19.6406 2.85938 19.0781 2.64375C18.6562 2.475 18.0187 2.2875 16.8469 2.23125C15.5812 2.175 15.2063 2.16563 12 2.16563ZM12 0C15.2625 0 15.6656 0.009375 16.95 0.075C18.225 0.13125 19.0969 0.3375 19.8562 0.628125C20.6437 0.9375 21.3187 1.34063 21.9844 2.01562C22.65 2.69062 23.0625 3.34688 23.3719 4.14375C23.6719 4.90313 23.8687 5.775 23.925 7.05938C23.9906 8.33438 24 8.7375 24 12C24 15.2625 23.9906 15.6656 23.925 16.95C23.8687 18.225 23.6625 19.0969 23.3719 19.8656C23.0625 20.6531 22.6594 21.3281 21.9844 21.9938C21.3187 22.6594 20.6437 23.0719 19.8562 23.3812C19.0969 23.6812 18.225 23.8781 16.9406 23.9344C15.6562 23.9906 15.2531 24.0094 11.9906 24.0094C8.72812 24.0094 8.325 24 7.04063 23.9344C5.76562 23.8781 4.89375 23.6719 4.125 23.3812C3.3375 23.0719 2.6625 22.6688 1.99688 21.9938C1.33125 21.3281 0.918751 20.6531 0.609375 19.8656C0.309376 19.1062 0.112501 18.2344 0.0562515 16.95C0 15.6656 -0.0187511 15.2625 -0.0187511 12C-0.0187511 8.7375 -0.00937462 8.33437 0.0562515 7.05C0.112501 5.775 0.31875 4.90312 0.609375 4.13437C0.918751 3.34687 1.32187 2.67188 1.99688 2.00625C2.67188 1.34062 3.34687 0.9375 4.14375 0.628125C4.90312 0.328125 5.775 0.13125 7.05938 0.075C8.33438 0.009375 8.7375 0 12 0ZM12 5.84062C15.4031 5.84062 18.1594 8.59688 18.1594 12C18.1594 15.4031 15.4031 18.1594 12 18.1594C8.59688 18.1594 5.84063 15.4031 5.84063 12C5.84063 8.59688 8.59688 5.84062 12 5.84062ZM12 16.0031C14.2125 16.0031 16.0031 14.2125 16.0031 12C16.0031 9.7875 14.2125 7.99688 12 7.99688C9.7875 7.99688 7.99688 9.7875 7.99688 12C7.99688 14.2125 9.7875 16.0031 12 16.0031ZM4.15313 5.59688C4.15313 6.39375 4.8 7.04062 5.59687 7.04062C6.39375 7.04062 7.03125 6.39375 7.03125 5.59688C7.03125 4.8 6.38438 4.15312 5.5875 4.15312C4.79063 4.15312 4.15313 4.8 4.15313 5.59688Z" fill="white"/>
</svg>
