<svg width="93" height="87" viewBox="0 0 93 87" fill="none" xmlns="http://www.w3.org/2000/svg">
<path d="M91.1689 38.1967L82.6426 62.5036L84.4742 65.4394L93.0005 41.0693L91.1689 38.1967Z" fill="white"/>
<path d="M18.6202 0.0131322L16.4141 1.5415L37.9449 32.598L40.1511 31.0697L18.6202 0.0131322Z" fill="white"/>
<path d="M46.1684 45.2365L37.2947 47.4462L19.6105 22.3185L8.93684 55.6853L19.1684 70.4589L0 75.194L1.51579 77.5931L20.8105 72.8265L30.6632 87.0318L69.0632 77.53L80.021 46.7201L56.4316 13.2271L46.1684 45.2365ZM34.4842 48.1407L12.4105 53.6019L20.5263 28.3163L34.4842 48.1407ZM77.021 47.1305L67.0105 75.2572L31.8 83.9698L23.5895 72.132L39.1263 68.2807L37.5474 65.9132L21.9789 69.7644L12.6632 56.3482L36.1579 50.5082L40.8316 57.1374L43.7053 56.5376L38.9684 49.8138L48.2842 47.4778L57.3474 19.2249L77.021 47.1305Z" fill="white"/>
</svg>
