<svg width="25" height="23" viewBox="0 0 25 23" fill="none" xmlns="http://www.w3.org/2000/svg">
<path d="M17.4031 7.43952C17.5022 7.79943 17.522 8.25931 17.4824 8.83916C17.4031 9.8589 16.8877 10.9586 16.3129 12.0184C15.6588 13.238 14.4299 15.6574 12.8244 13.9179C12.646 13.7379 12.5072 13.538 12.3883 13.318C11.3972 11.6784 11.4567 9.13909 11.1594 7.37953C10.981 6.25982 10.7828 4.88017 10.426 3.72047C10.3863 3.56051 10.3269 3.42054 10.2476 3.26058C9.89082 2.4008 9.25654 1.50103 8.52315 1.28109C7.57173 1.00116 6.42209 1.44105 5.72835 1.84095C3.54801 3.12062 1.88302 4.96015 0 6.47976V6.61973C0.138749 6.75969 0.237855 6.91965 0.336962 7.05962C0.515353 7.33955 0.673923 7.59948 1.03071 7.63947C2.31909 7.83942 3.56783 6.41978 4.42014 7.87941C4.53907 8.07936 4.63818 8.27931 4.71746 8.47925C4.69764 8.45926 4.69764 8.43926 4.67782 8.43926C4.69764 8.45926 4.69764 8.47925 4.71746 8.49925C5.01478 9.21907 5.17335 9.99887 5.45085 10.7387C5.90674 12.0184 6.2437 13.438 6.62031 14.9176C7.01673 16.5372 7.47262 18.6567 8.32494 20.2163C8.80065 21.076 9.37546 21.7759 10.1485 22.0958C11.2387 22.5557 12.9037 21.9358 13.7361 21.436C15.9958 20.0763 17.7599 18.1368 19.2663 16.1373C22.7152 11.4185 24.618 6.07987 24.8955 4.56025C25.0343 3.80045 25.0541 3.02065 24.8361 2.34082C24.737 2.08088 24.618 1.82095 24.4396 1.60101C23.5477 0.441302 21.625 0.401313 20.297 0.601262C19.2266 0.761221 15.6192 2.38081 14.3704 6.23983C14.5686 6.21983 14.747 6.21983 14.9056 6.19984C16.2534 6.15985 17.1256 6.39978 17.4031 7.43952Z" fill="white"/>
</svg>
