<?xml version="1.0" standalone="no"?>
<!DOCTYPE svg PUBLIC "-//W3C//DTD SVG 20010904//EN"
 "http://www.w3.org/TR/2001/REC-SVG-20010904/DTD/svg10.dtd">
<svg version="1.0" xmlns="http://www.w3.org/2000/svg"
 width="700.000000pt" height="700.000000pt" viewBox="0 0 700.000000 700.000000"
 preserveAspectRatio="xMidYMid meet">
<metadata>
Created by potrace 1.11, written by Peter Selinger 2001-2013
</metadata>
<g transform="translate(0.000000,700.000000) scale(0.100000,-0.100000)"
fill="#000000" stroke="none">
<path d="M0 3500 l0 -3500 3500 0 3500 0 0 3500 0 3500 -3500 0 -3500 0 0
-3500z m1720 2005 l0 -1335 775 0 775 0 0 -220 0 -220 -1545 0 -1545 0 0 220
0 220 545 0 545 0 0 1110 0 1110 -220 0 -220 0 0 225 0 225 445 0 445 0 0
-1335z m5100 -225 l0 -1550 -1550 0 -1550 0 0 1550 0 1550 1550 0 1550 0 0
-1550z m-3530 -2885 l0 -885 -1330 0 -1330 0 0 -445 0 -445 1330 0 1330 0 0
-225 0 -225 -1552 2 -1553 3 -3 888 -2 887 1335 0 1335 0 0 445 0 445 -1335 0
-1335 0 0 220 0 220 1555 0 1555 0 0 -885z m870 220 l0 -665 1110 0 1110 0 0
665 0 665 220 0 220 0 0 -1555 0 -1555 -220 0 -220 0 -2 667 -3 668 -1332 3
-1333 2 0 885 0 885 225 0 225 0 0 -665z"/>
<path d="M4150 5285 l0 -1115 1115 0 1115 0 0 1115 0 1115 -1115 0 -1115 0 0
-1115z"/>
</g>
</svg>
